M48
INCH
T01C0.018
T02C0.031
T03C0.039
T04C0.126
%
T01
X+032000Y+030750
X+034250Y+020250
Y+023000
X+033750Y+022000
X+034250Y+031750
X+033750Y+031250
X+039750Y+025000
X+032500Y+030250
X+040500Y+024000
T02
X+031000Y+016000
X+032000
X+034000
X+030000
X+033000
X+031000Y+017000
X+032000
X+034000
X+030000
X+033000
X+028000Y+033000
Y+034000
X+033000Y+027000
X+030000
X+033000Y+026000
X+030000
X+033000Y+024000
X+030000
X+033000Y+023000
X+030000
X+033000Y+028000
X+030000
X+033000Y+025000
Y+022000
X+030000Y+025000
Y+022000
X+044000Y+034000
Y+031000
Y+032000
Y+028000
Y+029000
Y+025000
Y+026000
Y+022000
Y+023000
X+038000Y+034000
Y+031000
Y+032000
Y+028000
Y+029000
Y+025000
Y+026000
Y+022000
Y+023000
X+044000Y+027000
Y+030000
Y+033000
Y+021000
Y+024000
X+038000Y+027000
Y+030000
Y+033000
Y+021000
Y+024000
X+035000Y+016000
X+036000
X+038000
X+039000
X+041000
X+042000
X+044000
X+037000
X+040000
X+043000
X+035000Y+017000
X+036000
X+038000
X+039000
X+041000
X+042000
X+044000
X+037000
X+040000
X+043000
T03
X+031000Y+034000
Y+033000
X+032000Y+034000
Y+033000
X+034000Y+034000
Y+033000
X+035000Y+034000
Y+033000
X+030000Y+034000
Y+033000
X+033000Y+034000
Y+033000
T04
X+046500Y+027000
X+027500
T00
M30
